<svg width="540" height="482" viewBox="0 0 540 482" fill="none" xmlns="http://www.w3.org/2000/svg">
<g filter="url(#filter0_d_0_5810)">
<rect width="540" height="474" rx="10" fill="white"/>
</g>
<g clip-path="url(#clip0_0_5810)">
<rect x="40.5" y="40.5" width="459" height="55" rx="4.5" fill="white" stroke="#5E54A4"/>
<path d="M78.51 63.116V70.088C78.51 71.04 78.244 71.782 77.712 72.314C77.1893 72.8367 76.4613 73.098 75.528 73.098C74.52 73.098 73.722 72.8087 73.134 72.23C72.546 71.6513 72.252 70.8253 72.252 69.752H74.198C74.198 70.256 74.3007 70.6433 74.506 70.914C74.7207 71.1847 75.0333 71.32 75.444 71.32C75.8173 71.32 76.0927 71.2127 76.27 70.998C76.4473 70.774 76.536 70.4707 76.536 70.088V63.116H78.51ZM84.0718 65.146C84.8278 65.146 85.5045 65.3047 86.1018 65.622C86.7085 65.9393 87.1845 66.4013 87.5298 67.008C87.8751 67.6053 88.0478 68.31 88.0478 69.122C88.0478 69.934 87.8751 70.6387 87.5298 71.236C87.1845 71.8333 86.7085 72.2953 86.1018 72.622C85.5045 72.9393 84.8278 73.098 84.0718 73.098C83.3158 73.098 82.6345 72.9393 82.0278 72.622C81.4305 72.2953 80.9591 71.8333 80.6138 71.236C80.2685 70.6387 80.0958 69.934 80.0958 69.122C80.0958 68.31 80.2685 67.6053 80.6138 67.008C80.9591 66.4013 81.4305 65.9393 82.0278 65.622C82.6345 65.3047 83.3158 65.146 84.0718 65.146ZM84.0718 66.854C83.5211 66.854 83.0545 67.05 82.6718 67.442C82.2891 67.8247 82.0978 68.3847 82.0978 69.122C82.0978 69.8593 82.2891 70.424 82.6718 70.816C83.0545 71.1987 83.5211 71.39 84.0718 71.39C84.6225 71.39 85.0891 71.1987 85.4718 70.816C85.8545 70.424 86.0458 69.8593 86.0458 69.122C86.0458 68.3847 85.8545 67.8247 85.4718 67.442C85.0891 67.05 84.6225 66.854 84.0718 66.854ZM94.3129 65.132C95.2089 65.132 95.9229 65.426 96.4549 66.014C96.9869 66.602 97.2529 67.428 97.2529 68.492V73H95.2929V68.716C95.2929 68.1 95.1342 67.624 94.8169 67.288C94.4995 66.9427 94.0655 66.77 93.5149 66.77C92.9549 66.77 92.5069 66.952 92.1709 67.316C91.8349 67.68 91.6669 68.2027 91.6669 68.884V73H89.6929V65.244H91.6669V66.798C91.8722 66.2753 92.2082 65.8693 92.6749 65.58C93.1509 65.2813 93.6969 65.132 94.3129 65.132ZM102.278 65.146C102.931 65.146 103.491 65.3 103.958 65.608C104.424 65.916 104.756 66.3313 104.952 66.854V65.244H106.912V73H104.952V71.376C104.756 71.8987 104.424 72.3187 103.958 72.636C103.491 72.944 102.931 73.098 102.278 73.098C101.624 73.098 101.036 72.9393 100.514 72.622C99.9911 72.3047 99.5804 71.8473 99.2818 71.25C98.9924 70.6433 98.8478 69.934 98.8478 69.122C98.8478 68.31 98.9924 67.6053 99.2818 67.008C99.5804 66.4013 99.9911 65.9393 100.514 65.622C101.036 65.3047 101.624 65.146 102.278 65.146ZM102.894 66.868C102.278 66.868 101.783 67.0687 101.41 67.47C101.036 67.8713 100.85 68.422 100.85 69.122C100.85 69.822 101.036 70.3727 101.41 70.774C101.783 71.166 102.278 71.362 102.894 71.362C103.491 71.362 103.981 71.1613 104.364 70.76C104.756 70.3493 104.952 69.8033 104.952 69.122C104.952 68.4313 104.756 67.8853 104.364 67.484C103.981 67.0733 103.491 66.868 102.894 66.868ZM113.095 71.306V73H112.059C111.191 73 110.523 72.79 110.057 72.37C109.599 71.95 109.371 71.25 109.371 70.27V66.91H108.293V65.244H109.371V63.326H111.345V65.244H113.081V66.91H111.345V70.298C111.345 70.6713 111.419 70.9327 111.569 71.082C111.718 71.2313 111.97 71.306 112.325 71.306H113.095ZM119.385 65.132C120.281 65.132 120.995 65.426 121.527 66.014C122.059 66.602 122.325 67.428 122.325 68.492V73H120.365V68.716C120.365 68.1 120.206 67.624 119.889 67.288C119.572 66.9427 119.138 66.77 118.587 66.77C118.027 66.77 117.579 66.952 117.243 67.316C116.907 67.68 116.739 68.2027 116.739 68.884V73H114.765V62.64H116.739V66.798C116.944 66.2753 117.28 65.8693 117.747 65.58C118.223 65.2813 118.769 65.132 119.385 65.132ZM127.35 65.146C128.003 65.146 128.563 65.3 129.03 65.608C129.497 65.916 129.828 66.3313 130.024 66.854V65.244H131.984V73H130.024V71.376C129.828 71.8987 129.497 72.3187 129.03 72.636C128.563 72.944 128.003 73.098 127.35 73.098C126.697 73.098 126.109 72.9393 125.586 72.622C125.063 72.3047 124.653 71.8473 124.354 71.25C124.065 70.6433 123.92 69.934 123.92 69.122C123.92 68.31 124.065 67.6053 124.354 67.008C124.653 66.4013 125.063 65.9393 125.586 65.622C126.109 65.3047 126.697 65.146 127.35 65.146ZM127.966 66.868C127.35 66.868 126.855 67.0687 126.482 67.47C126.109 67.8713 125.922 68.422 125.922 69.122C125.922 69.822 126.109 70.3727 126.482 70.774C126.855 71.166 127.35 71.362 127.966 71.362C128.563 71.362 129.053 71.1613 129.436 70.76C129.828 70.3493 130.024 69.8033 130.024 69.122C130.024 68.4313 129.828 67.8853 129.436 67.484C129.053 67.0733 128.563 66.868 127.966 66.868ZM138.643 65.132C139.539 65.132 140.253 65.426 140.785 66.014C141.317 66.602 141.583 67.428 141.583 68.492V73H139.623V68.716C139.623 68.1 139.464 67.624 139.147 67.288C138.83 66.9427 138.396 66.77 137.845 66.77C137.285 66.77 136.837 66.952 136.501 67.316C136.165 67.68 135.997 68.2027 135.997 68.884V73H134.023V65.244H135.997V66.798C136.202 66.2753 136.538 65.8693 137.005 65.58C137.481 65.2813 138.027 65.132 138.643 65.132Z" fill="#3D3B48"/>
<rect x="147" y="57" width="2" height="22" fill="#5E54A4"/>
</g>
<g clip-path="url(#clip1_0_5810)">
<rect x="40.5" y="116.5" width="459" height="55" rx="4.5" fill="white" stroke="#DEDEDE"/>
<path opacity="0.75" d="M74.87 147.488H78.188V149H72.896V139.116H74.87V147.488ZM82.6508 141.146C83.3041 141.146 83.8641 141.3 84.3308 141.608C84.7975 141.916 85.1288 142.331 85.3248 142.854V141.244H87.2848V149H85.3248V147.376C85.1288 147.899 84.7975 148.319 84.3308 148.636C83.8641 148.944 83.3041 149.098 82.6508 149.098C81.9975 149.098 81.4095 148.939 80.8868 148.622C80.3641 148.305 79.9535 147.847 79.6548 147.25C79.3655 146.643 79.2208 145.934 79.2208 145.122C79.2208 144.31 79.3655 143.605 79.6548 143.008C79.9535 142.401 80.3641 141.939 80.8868 141.622C81.4095 141.305 81.9975 141.146 82.6508 141.146ZM83.2668 142.868C82.6508 142.868 82.1561 143.069 81.7828 143.47C81.4095 143.871 81.2228 144.422 81.2228 145.122C81.2228 145.822 81.4095 146.373 81.7828 146.774C82.1561 147.166 82.6508 147.362 83.2668 147.362C83.8641 147.362 84.3541 147.161 84.7368 146.76C85.1288 146.349 85.3248 145.803 85.3248 145.122C85.3248 144.431 85.1288 143.885 84.7368 143.484C84.3541 143.073 83.8641 142.868 83.2668 142.868ZM91.9977 141.146C92.9404 141.146 93.6964 141.384 94.2657 141.86C94.8351 142.336 95.1897 142.971 95.3297 143.764H93.4817C93.4071 143.391 93.2391 143.092 92.9777 142.868C92.7164 142.644 92.3757 142.532 91.9557 142.532C91.6197 142.532 91.3584 142.611 91.1717 142.77C90.9851 142.929 90.8917 143.143 90.8917 143.414C90.8917 143.629 90.9664 143.801 91.1157 143.932C91.2651 144.063 91.4517 144.165 91.6757 144.24C91.8997 144.315 92.2217 144.403 92.6417 144.506C93.2297 144.637 93.7057 144.777 94.0697 144.926C94.4431 145.066 94.7604 145.295 95.0217 145.612C95.2924 145.92 95.4277 146.34 95.4277 146.872C95.4277 147.535 95.1664 148.071 94.6437 148.482C94.1304 148.893 93.4351 149.098 92.5577 149.098C91.5497 149.098 90.7424 148.874 90.1357 148.426C89.5291 147.969 89.1604 147.32 89.0297 146.48H90.9197C90.9664 146.863 91.1344 147.166 91.4237 147.39C91.7131 147.605 92.0911 147.712 92.5577 147.712C92.8937 147.712 93.1504 147.633 93.3277 147.474C93.5051 147.306 93.5937 147.091 93.5937 146.83C93.5937 146.606 93.5144 146.424 93.3557 146.284C93.2064 146.144 93.0151 146.037 92.7817 145.962C92.5577 145.887 92.2357 145.799 91.8157 145.696C91.2371 145.565 90.7657 145.435 90.4017 145.304C90.0471 145.164 89.7391 144.945 89.4777 144.646C89.2257 144.347 89.0997 143.937 89.0997 143.414C89.0997 142.742 89.3564 142.196 89.8697 141.776C90.3831 141.356 91.0924 141.146 91.9977 141.146ZM101.292 147.306V149H100.256C99.388 149 98.7206 148.79 98.254 148.37C97.7966 147.95 97.568 147.25 97.568 146.27V142.91H96.49V141.244H97.568V139.326H99.542V141.244H101.278V142.91H99.542V146.298C99.542 146.671 99.6166 146.933 99.766 147.082C99.9153 147.231 100.167 147.306 100.522 147.306H101.292ZM114.633 149H112.659L108.235 142.28V149H106.261V139.116H108.235L112.659 145.892V139.116H114.633V149ZM119.707 141.146C120.361 141.146 120.921 141.3 121.387 141.608C121.854 141.916 122.185 142.331 122.381 142.854V141.244H124.341V149H122.381V147.376C122.185 147.899 121.854 148.319 121.387 148.636C120.921 148.944 120.361 149.098 119.707 149.098C119.054 149.098 118.466 148.939 117.943 148.622C117.421 148.305 117.01 147.847 116.711 147.25C116.422 146.643 116.277 145.934 116.277 145.122C116.277 144.31 116.422 143.605 116.711 143.008C117.01 142.401 117.421 141.939 117.943 141.622C118.466 141.305 119.054 141.146 119.707 141.146ZM120.323 142.868C119.707 142.868 119.213 143.069 118.839 143.47C118.466 143.871 118.279 144.422 118.279 145.122C118.279 145.822 118.466 146.373 118.839 146.774C119.213 147.166 119.707 147.362 120.323 147.362C120.921 147.362 121.411 147.161 121.793 146.76C122.185 146.349 122.381 145.803 122.381 145.122C122.381 144.431 122.185 143.885 121.793 143.484C121.411 143.073 120.921 142.868 120.323 142.868ZM136.25 141.132C137.193 141.132 137.935 141.426 138.476 142.014C139.027 142.593 139.302 143.419 139.302 144.492V149H137.342V144.716C137.342 144.119 137.188 143.661 136.88 143.344C136.582 143.017 136.166 142.854 135.634 142.854C135.084 142.854 134.645 143.027 134.318 143.372C133.992 143.717 133.828 144.221 133.828 144.884V149H131.868V144.716C131.868 144.119 131.714 143.661 131.406 143.344C131.108 143.017 130.692 142.854 130.16 142.854C129.61 142.854 129.171 143.027 128.844 143.372C128.518 143.717 128.354 144.221 128.354 144.884V149H126.38V141.244H128.354V142.714C128.56 142.21 128.882 141.823 129.32 141.552C129.768 141.272 130.286 141.132 130.874 141.132C131.5 141.132 132.041 141.281 132.498 141.58C132.965 141.879 133.315 142.308 133.548 142.868C133.791 142.336 134.15 141.916 134.626 141.608C135.112 141.291 135.653 141.132 136.25 141.132ZM148.581 144.828C148.581 145.024 148.557 145.248 148.511 145.5H142.827C142.855 146.191 143.041 146.699 143.387 147.026C143.732 147.353 144.161 147.516 144.675 147.516C145.132 147.516 145.51 147.404 145.809 147.18C146.117 146.956 146.313 146.653 146.397 146.27H148.483C148.38 146.811 148.161 147.297 147.825 147.726C147.489 148.155 147.055 148.491 146.523 148.734C146 148.977 145.417 149.098 144.773 149.098C144.017 149.098 143.345 148.939 142.757 148.622C142.169 148.295 141.711 147.833 141.385 147.236C141.058 146.639 140.895 145.934 140.895 145.122C140.895 144.31 141.058 143.605 141.385 143.008C141.711 142.401 142.169 141.939 142.757 141.622C143.345 141.305 144.017 141.146 144.773 141.146C145.538 141.146 146.205 141.305 146.775 141.622C147.353 141.939 147.797 142.378 148.105 142.938C148.422 143.489 148.581 144.119 148.581 144.828ZM146.593 144.632C146.621 143.997 146.453 143.517 146.089 143.19C145.734 142.863 145.295 142.7 144.773 142.7C144.241 142.7 143.793 142.863 143.429 143.19C143.065 143.517 142.864 143.997 142.827 144.632H146.593Z" fill="#3D3B48"/>
</g>
<g clip-path="url(#clip2_0_5810)">
<rect x="40.5" y="192.5" width="459" height="55" rx="4.5" fill="white" stroke="#DEDEDE"/>
<path opacity="0.75" d="M74.87 216.684V219.246H78.37V220.758H74.87V223.418H78.79V225H72.896V215.116H78.79V216.684H74.87ZM90.3715 217.132C91.3141 217.132 92.0561 217.426 92.5975 218.014C93.1481 218.593 93.4235 219.419 93.4235 220.492V225H91.4635V220.716C91.4635 220.119 91.3095 219.661 91.0015 219.344C90.7028 219.017 90.2875 218.854 89.7555 218.854C89.2048 218.854 88.7661 219.027 88.4395 219.372C88.1128 219.717 87.9495 220.221 87.9495 220.884V225H85.9895V220.716C85.9895 220.119 85.8355 219.661 85.5275 219.344C85.2288 219.017 84.8135 218.854 84.2815 218.854C83.7308 218.854 83.2921 219.027 82.9655 219.372C82.6388 219.717 82.4755 220.221 82.4755 220.884V225H80.5015V217.244H82.4755V218.714C82.6808 218.21 83.0028 217.823 83.4415 217.552C83.8895 217.272 84.4075 217.132 84.9955 217.132C85.6208 217.132 86.1621 217.281 86.6195 217.58C87.0861 217.879 87.4361 218.308 87.6695 218.868C87.9121 218.336 88.2715 217.916 88.7475 217.608C89.2328 217.291 89.7741 217.132 90.3715 217.132ZM98.4457 217.146C99.0991 217.146 99.6591 217.3 100.126 217.608C100.592 217.916 100.924 218.331 101.12 218.854V217.244H103.08V225H101.12V223.376C100.924 223.899 100.592 224.319 100.126 224.636C99.6591 224.944 99.0991 225.098 98.4457 225.098C97.7924 225.098 97.2044 224.939 96.6817 224.622C96.1591 224.305 95.7484 223.847 95.4497 223.25C95.1604 222.643 95.0157 221.934 95.0157 221.122C95.0157 220.31 95.1604 219.605 95.4497 219.008C95.7484 218.401 96.1591 217.939 96.6817 217.622C97.2044 217.305 97.7924 217.146 98.4457 217.146ZM99.0617 218.868C98.4457 218.868 97.9511 219.069 97.5777 219.47C97.2044 219.871 97.0177 220.422 97.0177 221.122C97.0177 221.822 97.2044 222.373 97.5777 222.774C97.9511 223.166 98.4457 223.362 99.0617 223.362C99.6591 223.362 100.149 223.161 100.532 222.76C100.924 222.349 101.12 221.803 101.12 221.122C101.12 220.431 100.924 219.885 100.532 219.484C100.149 219.073 99.6591 218.868 99.0617 218.868ZM104.895 215.018C104.895 214.701 105.007 214.444 105.231 214.248C105.455 214.043 105.749 213.94 106.113 213.94C106.477 213.94 106.771 214.043 106.995 214.248C107.219 214.444 107.331 214.701 107.331 215.018C107.331 215.326 107.219 215.583 106.995 215.788C106.771 215.984 106.477 216.082 106.113 216.082C105.749 216.082 105.455 215.984 105.231 215.788C105.007 215.583 104.895 215.326 104.895 215.018ZM107.093 217.244V225H105.119V217.244H107.093ZM111.102 214.64V225H109.128V214.64H111.102ZM122.457 223.012H118.495L117.795 225H115.709L119.349 215.228H121.603L125.229 225H123.143L122.457 223.012ZM121.925 221.514L120.469 217.342L119.013 221.514H121.925ZM129.582 217.146C130.236 217.146 130.791 217.3 131.248 217.608C131.715 217.916 132.051 218.331 132.256 218.854V214.64H134.216V225H132.256V223.376C132.051 223.899 131.715 224.319 131.248 224.636C130.791 224.944 130.236 225.098 129.582 225.098C128.929 225.098 128.341 224.939 127.818 224.622C127.296 224.305 126.885 223.847 126.586 223.25C126.297 222.643 126.152 221.934 126.152 221.122C126.152 220.31 126.297 219.605 126.586 219.008C126.885 218.401 127.296 217.939 127.818 217.622C128.341 217.305 128.929 217.146 129.582 217.146ZM130.198 218.868C129.582 218.868 129.088 219.069 128.714 219.47C128.341 219.871 128.154 220.422 128.154 221.122C128.154 221.822 128.341 222.373 128.714 222.774C129.088 223.166 129.582 223.362 130.198 223.362C130.796 223.362 131.286 223.161 131.668 222.76C132.06 222.349 132.256 221.803 132.256 221.122C132.256 220.431 132.06 219.885 131.668 219.484C131.286 219.073 130.796 218.868 130.198 218.868ZM139.293 217.146C139.947 217.146 140.502 217.3 140.959 217.608C141.426 217.916 141.762 218.331 141.967 218.854V214.64H143.927V225H141.967V223.376C141.762 223.899 141.426 224.319 140.959 224.636C140.502 224.944 139.947 225.098 139.293 225.098C138.64 225.098 138.052 224.939 137.529 224.622C137.007 224.305 136.596 223.847 136.297 223.25C136.008 222.643 135.863 221.934 135.863 221.122C135.863 220.31 136.008 219.605 136.297 219.008C136.596 218.401 137.007 217.939 137.529 217.622C138.052 217.305 138.64 217.146 139.293 217.146ZM139.909 218.868C139.293 218.868 138.799 219.069 138.425 219.47C138.052 219.871 137.865 220.422 137.865 221.122C137.865 221.822 138.052 222.373 138.425 222.774C138.799 223.166 139.293 223.362 139.909 223.362C140.507 223.362 140.997 223.161 141.379 222.76C141.771 222.349 141.967 221.803 141.967 221.122C141.967 220.431 141.771 219.885 141.379 219.484C140.997 219.073 140.507 218.868 139.909 218.868ZM147.94 218.728C148.23 218.233 148.612 217.846 149.088 217.566C149.564 217.277 150.096 217.132 150.684 217.132V219.246H150.11C148.664 219.246 147.94 219.918 147.94 221.262V225H145.966V217.244H147.94V218.728ZM159.321 220.828C159.321 221.024 159.298 221.248 159.251 221.5H153.567C153.595 222.191 153.782 222.699 154.127 223.026C154.472 223.353 154.902 223.516 155.415 223.516C155.872 223.516 156.25 223.404 156.549 223.18C156.857 222.956 157.053 222.653 157.137 222.27H159.223C159.12 222.811 158.901 223.297 158.565 223.726C158.229 224.155 157.795 224.491 157.263 224.734C156.74 224.977 156.157 225.098 155.513 225.098C154.757 225.098 154.085 224.939 153.497 224.622C152.909 224.295 152.452 223.833 152.125 223.236C151.798 222.639 151.635 221.934 151.635 221.122C151.635 220.31 151.798 219.605 152.125 219.008C152.452 218.401 152.909 217.939 153.497 217.622C154.085 217.305 154.757 217.146 155.513 217.146C156.278 217.146 156.946 217.305 157.515 217.622C158.094 217.939 158.537 218.378 158.845 218.938C159.162 219.489 159.321 220.119 159.321 220.828ZM157.333 220.632C157.361 219.997 157.193 219.517 156.829 219.19C156.474 218.863 156.036 218.7 155.513 218.7C154.981 218.7 154.533 218.863 154.169 219.19C153.805 219.517 153.604 219.997 153.567 220.632H157.333ZM163.646 217.146C164.589 217.146 165.345 217.384 165.914 217.86C166.484 218.336 166.838 218.971 166.978 219.764H165.13C165.056 219.391 164.888 219.092 164.626 218.868C164.365 218.644 164.024 218.532 163.604 218.532C163.268 218.532 163.007 218.611 162.82 218.77C162.634 218.929 162.54 219.143 162.54 219.414C162.54 219.629 162.615 219.801 162.764 219.932C162.914 220.063 163.1 220.165 163.324 220.24C163.548 220.315 163.87 220.403 164.29 220.506C164.878 220.637 165.354 220.777 165.718 220.926C166.092 221.066 166.409 221.295 166.67 221.612C166.941 221.92 167.076 222.34 167.076 222.872C167.076 223.535 166.815 224.071 166.292 224.482C165.779 224.893 165.084 225.098 164.206 225.098C163.198 225.098 162.391 224.874 161.784 224.426C161.178 223.969 160.809 223.32 160.678 222.48H162.568C162.615 222.863 162.783 223.166 163.072 223.39C163.362 223.605 163.74 223.712 164.206 223.712C164.542 223.712 164.799 223.633 164.976 223.474C165.154 223.306 165.242 223.091 165.242 222.83C165.242 222.606 165.163 222.424 165.004 222.284C164.855 222.144 164.664 222.037 164.43 221.962C164.206 221.887 163.884 221.799 163.464 221.696C162.886 221.565 162.414 221.435 162.05 221.304C161.696 221.164 161.388 220.945 161.126 220.646C160.874 220.347 160.748 219.937 160.748 219.414C160.748 218.742 161.005 218.196 161.518 217.776C162.032 217.356 162.741 217.146 163.646 217.146ZM171.47 217.146C172.413 217.146 173.169 217.384 173.738 217.86C174.308 218.336 174.662 218.971 174.802 219.764H172.954C172.88 219.391 172.712 219.092 172.45 218.868C172.189 218.644 171.848 218.532 171.428 218.532C171.092 218.532 170.831 218.611 170.644 218.77C170.458 218.929 170.364 219.143 170.364 219.414C170.364 219.629 170.439 219.801 170.588 219.932C170.738 220.063 170.924 220.165 171.148 220.24C171.372 220.315 171.694 220.403 172.114 220.506C172.702 220.637 173.178 220.777 173.542 220.926C173.916 221.066 174.233 221.295 174.494 221.612C174.765 221.92 174.9 222.34 174.9 222.872C174.9 223.535 174.639 224.071 174.116 224.482C173.603 224.893 172.908 225.098 172.03 225.098C171.022 225.098 170.215 224.874 169.608 224.426C169.002 223.969 168.633 223.32 168.502 222.48H170.392C170.439 222.863 170.607 223.166 170.896 223.39C171.186 223.605 171.564 223.712 172.03 223.712C172.366 223.712 172.623 223.633 172.8 223.474C172.978 223.306 173.066 223.091 173.066 222.83C173.066 222.606 172.987 222.424 172.828 222.284C172.679 222.144 172.488 222.037 172.254 221.962C172.03 221.887 171.708 221.799 171.288 221.696C170.71 221.565 170.238 221.435 169.874 221.304C169.52 221.164 169.212 220.945 168.95 220.646C168.698 220.347 168.572 219.937 168.572 219.414C168.572 218.742 168.829 218.196 169.342 217.776C169.856 217.356 170.565 217.146 171.47 217.146Z" fill="#3D3B48"/>
</g>
<g clip-path="url(#clip3_0_5810)">
<rect x="40.5" y="268.5" width="459" height="55" rx="4.5" fill="white" stroke="#DEDEDE"/>
<path opacity="0.75" d="M74.87 297.332V301H72.896V291.116H76.494C77.6607 291.116 78.538 291.396 79.126 291.956C79.7233 292.516 80.022 293.277 80.022 294.238C80.022 295.181 79.714 295.932 79.098 296.492C78.4913 297.052 77.6233 297.332 76.494 297.332H74.87ZM76.284 295.75C77.4413 295.75 78.02 295.246 78.02 294.238C78.02 293.743 77.8847 293.365 77.614 293.104C77.3433 292.843 76.9 292.712 76.284 292.712H74.87V295.75H76.284ZM84.5922 293.146C85.2455 293.146 85.8055 293.3 86.2722 293.608C86.7389 293.916 87.0702 294.331 87.2662 294.854V293.244H89.2262V301H87.2662V299.376C87.0702 299.899 86.7389 300.319 86.2722 300.636C85.8055 300.944 85.2455 301.098 84.5922 301.098C83.9389 301.098 83.3509 300.939 82.8282 300.622C82.3055 300.305 81.8949 299.847 81.5962 299.25C81.3069 298.643 81.1622 297.934 81.1622 297.122C81.1622 296.31 81.3069 295.605 81.5962 295.008C81.8949 294.401 82.3055 293.939 82.8282 293.622C83.3509 293.305 83.9389 293.146 84.5922 293.146ZM85.2082 294.868C84.5922 294.868 84.0975 295.069 83.7242 295.47C83.3509 295.871 83.1642 296.422 83.1642 297.122C83.1642 297.822 83.3509 298.373 83.7242 298.774C84.0975 299.166 84.5922 299.362 85.2082 299.362C85.8055 299.362 86.2955 299.161 86.6782 298.76C87.0702 298.349 87.2662 297.803 87.2662 297.122C87.2662 296.431 87.0702 295.885 86.6782 295.484C86.2955 295.073 85.8055 294.868 85.2082 294.868ZM93.9391 293.146C94.8818 293.146 95.6378 293.384 96.2071 293.86C96.7765 294.336 97.1311 294.971 97.2711 295.764H95.4231C95.3485 295.391 95.1805 295.092 94.9191 294.868C94.6578 294.644 94.3171 294.532 93.8971 294.532C93.5611 294.532 93.2998 294.611 93.1131 294.77C92.9265 294.929 92.8331 295.143 92.8331 295.414C92.8331 295.629 92.9078 295.801 93.0571 295.932C93.2065 296.063 93.3931 296.165 93.6171 296.24C93.8411 296.315 94.1631 296.403 94.5831 296.506C95.1711 296.637 95.6471 296.777 96.0111 296.926C96.3845 297.066 96.7018 297.295 96.9631 297.612C97.2338 297.92 97.3691 298.34 97.3691 298.872C97.3691 299.535 97.1078 300.071 96.5851 300.482C96.0718 300.893 95.3765 301.098 94.4991 301.098C93.4911 301.098 92.6838 300.874 92.0771 300.426C91.4705 299.969 91.1018 299.32 90.9711 298.48H92.8611C92.9078 298.863 93.0758 299.166 93.3651 299.39C93.6545 299.605 94.0325 299.712 94.4991 299.712C94.8351 299.712 95.0918 299.633 95.2691 299.474C95.4465 299.306 95.5351 299.091 95.5351 298.83C95.5351 298.606 95.4558 298.424 95.2971 298.284C95.1478 298.144 94.9565 298.037 94.7231 297.962C94.4991 297.887 94.1771 297.799 93.7571 297.696C93.1785 297.565 92.7071 297.435 92.3431 297.304C91.9885 297.164 91.6805 296.945 91.4191 296.646C91.1671 296.347 91.0411 295.937 91.0411 295.414C91.0411 294.742 91.2978 294.196 91.8111 293.776C92.3245 293.356 93.0338 293.146 93.9391 293.146ZM101.763 293.146C102.706 293.146 103.462 293.384 104.031 293.86C104.601 294.336 104.955 294.971 105.095 295.764H103.247C103.173 295.391 103.005 295.092 102.743 294.868C102.482 294.644 102.141 294.532 101.721 294.532C101.385 294.532 101.124 294.611 100.937 294.77C100.751 294.929 100.657 295.143 100.657 295.414C100.657 295.629 100.732 295.801 100.881 295.932C101.031 296.063 101.217 296.165 101.441 296.24C101.665 296.315 101.987 296.403 102.407 296.506C102.995 296.637 103.471 296.777 103.835 296.926C104.209 297.066 104.526 297.295 104.787 297.612C105.058 297.92 105.193 298.34 105.193 298.872C105.193 299.535 104.932 300.071 104.409 300.482C103.896 300.893 103.201 301.098 102.323 301.098C101.315 301.098 100.508 300.874 99.9014 300.426C99.2947 299.969 98.926 299.32 98.7954 298.48H100.685C100.732 298.863 100.9 299.166 101.189 299.39C101.479 299.605 101.857 299.712 102.323 299.712C102.659 299.712 102.916 299.633 103.093 299.474C103.271 299.306 103.359 299.091 103.359 298.83C103.359 298.606 103.28 298.424 103.121 298.284C102.972 298.144 102.781 298.037 102.547 297.962C102.323 297.887 102.001 297.799 101.581 297.696C101.003 297.565 100.531 297.435 100.167 297.304C99.8127 297.164 99.5047 296.945 99.2434 296.646C98.9914 296.347 98.8654 295.937 98.8654 295.414C98.8654 294.742 99.122 294.196 99.6354 293.776C100.149 293.356 100.858 293.146 101.763 293.146ZM118.016 293.244L115.93 301H113.746L112.08 295.358L110.372 301H108.188L106.116 293.244H108.09L109.35 299.236L111.072 293.244H113.158L114.894 299.236L116.168 293.244H118.016ZM122.834 293.146C123.59 293.146 124.266 293.305 124.864 293.622C125.47 293.939 125.946 294.401 126.292 295.008C126.637 295.605 126.81 296.31 126.81 297.122C126.81 297.934 126.637 298.639 126.292 299.236C125.946 299.833 125.47 300.295 124.864 300.622C124.266 300.939 123.59 301.098 122.834 301.098C122.078 301.098 121.396 300.939 120.79 300.622C120.192 300.295 119.721 299.833 119.376 299.236C119.03 298.639 118.858 297.934 118.858 297.122C118.858 296.31 119.03 295.605 119.376 295.008C119.721 294.401 120.192 293.939 120.79 293.622C121.396 293.305 122.078 293.146 122.834 293.146ZM122.834 294.854C122.283 294.854 121.816 295.05 121.434 295.442C121.051 295.825 120.86 296.385 120.86 297.122C120.86 297.859 121.051 298.424 121.434 298.816C121.816 299.199 122.283 299.39 122.834 299.39C123.384 299.39 123.851 299.199 124.234 298.816C124.616 298.424 124.808 297.859 124.808 297.122C124.808 296.385 124.616 295.825 124.234 295.442C123.851 295.05 123.384 294.854 122.834 294.854ZM130.429 294.728C130.718 294.233 131.101 293.846 131.577 293.566C132.053 293.277 132.585 293.132 133.173 293.132V295.246H132.599C131.152 295.246 130.429 295.918 130.429 297.262V301H128.455V293.244H130.429V294.728ZM137.553 293.146C138.206 293.146 138.762 293.3 139.219 293.608C139.686 293.916 140.022 294.331 140.227 294.854V290.64H142.187V301H140.227V299.376C140.022 299.899 139.686 300.319 139.219 300.636C138.762 300.944 138.206 301.098 137.553 301.098C136.9 301.098 136.312 300.939 135.789 300.622C135.266 300.305 134.856 299.847 134.557 299.25C134.268 298.643 134.123 297.934 134.123 297.122C134.123 296.31 134.268 295.605 134.557 295.008C134.856 294.401 135.266 293.939 135.789 293.622C136.312 293.305 136.9 293.146 137.553 293.146ZM138.169 294.868C137.553 294.868 137.058 295.069 136.685 295.47C136.312 295.871 136.125 296.422 136.125 297.122C136.125 297.822 136.312 298.373 136.685 298.774C137.058 299.166 137.553 299.362 138.169 299.362C138.766 299.362 139.256 299.161 139.639 298.76C140.031 298.349 140.227 297.803 140.227 297.122C140.227 296.431 140.031 295.885 139.639 295.484C139.256 295.073 138.766 294.868 138.169 294.868Z" fill="#3D3B48"/>
</g>
<g filter="url(#filter1_i_0_5810)">
<rect x="40" y="344" width="460" height="56" rx="5" fill="#38CC8B"/>
</g>
<path d="M179.745 366.305C181.065 366.305 182.16 366.645 183.03 367.325C183.9 368.005 184.475 368.93 184.755 370.1H182.535C182.305 369.53 181.945 369.08 181.455 368.75C180.975 368.42 180.395 368.255 179.715 368.255C179.155 368.255 178.65 368.395 178.2 368.675C177.75 368.955 177.4 369.355 177.15 369.875C176.9 370.395 176.775 371.005 176.775 371.705C176.775 372.395 176.9 373 177.15 373.52C177.4 374.04 177.75 374.44 178.2 374.72C178.65 375 179.155 375.14 179.715 375.14C180.395 375.14 180.975 374.975 181.455 374.645C181.945 374.315 182.305 373.865 182.535 373.295H184.755C184.475 374.465 183.9 375.39 183.03 376.07C182.16 376.75 181.065 377.09 179.745 377.09C178.735 377.09 177.84 376.865 177.06 376.415C176.29 375.955 175.69 375.315 175.26 374.495C174.84 373.675 174.63 372.745 174.63 371.705C174.63 370.655 174.84 369.72 175.26 368.9C175.69 368.08 176.29 367.445 177.06 366.995C177.83 366.535 178.725 366.305 179.745 366.305ZM189.457 375.38H193.012V377H187.342V366.41H189.457V375.38ZM201.721 374.87H197.476L196.726 377H194.491L198.391 366.53H200.806L204.691 377H202.456L201.721 374.87ZM201.151 373.265L199.591 368.795L198.031 373.265H201.151ZM208.947 366.41V377H206.832V366.41H208.947ZM223.275 366.53V377H221.175V369.695L218.49 377H216.66L213.975 369.725V377H211.86V366.53H214.425L217.605 374.405L220.725 366.53H223.275ZM238.992 366.41L235.407 373.295V377H233.277V373.295L229.677 366.41H232.107L234.357 371.045L236.607 366.41H238.992ZM246.09 366.26C247.08 366.26 247.975 366.49 248.775 366.95C249.585 367.41 250.22 368.055 250.68 368.885C251.15 369.705 251.385 370.635 251.385 371.675C251.385 372.715 251.15 373.65 250.68 374.48C250.22 375.31 249.585 375.955 248.775 376.415C247.975 376.875 247.08 377.105 246.09 377.105C245.1 377.105 244.2 376.875 243.39 376.415C242.59 375.955 241.955 375.31 241.485 374.48C241.025 373.65 240.795 372.715 240.795 371.675C240.795 370.635 241.025 369.705 241.485 368.885C241.955 368.055 242.59 367.41 243.39 366.95C244.2 366.49 245.1 366.26 246.09 366.26ZM246.09 368.21C245.47 368.21 244.925 368.35 244.455 368.63C243.985 368.91 243.615 369.315 243.345 369.845C243.085 370.365 242.955 370.975 242.955 371.675C242.955 372.375 243.085 372.99 243.345 373.52C243.615 374.04 243.985 374.44 244.455 374.72C244.925 375 245.47 375.14 246.09 375.14C246.71 375.14 247.255 375 247.725 374.72C248.195 374.44 248.56 374.04 248.82 373.52C249.09 372.99 249.225 372.375 249.225 371.675C249.225 370.975 249.09 370.365 248.82 369.845C248.56 369.315 248.195 368.91 247.725 368.63C247.255 368.35 246.71 368.21 246.09 368.21ZM256.016 366.41V372.62C256.016 373.45 256.196 374.075 256.556 374.495C256.926 374.905 257.456 375.11 258.146 375.11C258.826 375.11 259.346 374.905 259.706 374.495C260.076 374.075 260.261 373.45 260.261 372.62V366.41H262.361V372.62C262.361 373.6 262.176 374.43 261.806 375.11C261.446 375.78 260.941 376.28 260.291 376.61C259.651 376.94 258.921 377.105 258.101 377.105C256.831 377.105 255.816 376.725 255.056 375.965C254.296 375.205 253.916 374.09 253.916 372.62V366.41H256.016ZM270.735 377L268.26 372.875H267.33V377H265.215V366.41H269.25C270.48 366.41 271.415 366.71 272.055 367.31C272.705 367.91 273.03 368.7 273.03 369.68C273.03 370.48 272.805 371.15 272.355 371.69C271.915 372.23 271.275 372.59 270.435 372.77L273.075 377H270.735ZM267.33 371.42H269.07C270.28 371.42 270.885 370.885 270.885 369.815C270.885 369.305 270.735 368.91 270.435 368.63C270.145 368.34 269.69 368.195 269.07 368.195H267.33V371.42ZM286.295 366.41V368.09H281.84V370.925H285.41V372.545H281.84V377H279.725V366.41H286.295ZM294.243 377L291.768 372.875H290.838V377H288.723V366.41H292.758C293.988 366.41 294.923 366.71 295.563 367.31C296.213 367.91 296.538 368.7 296.538 369.68C296.538 370.48 296.313 371.15 295.863 371.69C295.423 372.23 294.783 372.59 293.943 372.77L296.583 377H294.243ZM290.838 371.42H292.578C293.788 371.42 294.393 370.885 294.393 369.815C294.393 369.305 294.243 368.91 293.943 368.63C293.653 368.34 293.198 368.195 292.578 368.195H290.838V371.42ZM301.081 368.09V370.835H304.831V372.455H301.081V375.305H305.281V377H298.966V366.41H305.281V368.09H301.081ZM309.962 368.09V370.835H313.712V372.455H309.962V375.305H314.162V377H307.847V366.41H314.162V368.09H309.962ZM328.194 366.41V368.09H325.269V377H323.154V368.09H320.244V366.41H328.194ZM335.878 377L333.403 372.875H332.473V377H330.358V366.41H334.393C335.623 366.41 336.558 366.71 337.198 367.31C337.848 367.91 338.173 368.7 338.173 369.68C338.173 370.48 337.948 371.15 337.498 371.69C337.058 372.23 336.418 372.59 335.578 372.77L338.218 377H335.878ZM332.473 371.42H334.213C335.423 371.42 336.028 370.885 336.028 369.815C336.028 369.305 335.878 368.91 335.578 368.63C335.288 368.34 334.833 368.195 334.213 368.195H332.473V371.42ZM342.717 366.41V377H340.602V366.41H342.717ZM352.08 374.87H347.835L347.085 377H344.85L348.75 366.53H351.165L355.05 377H352.815L352.08 374.87ZM351.51 373.265L349.95 368.795L348.39 373.265H351.51ZM359.306 375.38H362.861V377H357.191V366.41H359.306V375.38Z" fill="white"/>
<path d="M91.7064 420.996C92.1757 421.091 92.5534 421.315 92.8394 421.667C93.1327 422.019 93.2794 422.43 93.2794 422.899C93.2794 423.544 93.0631 424.058 92.6304 424.439C92.1977 424.813 91.5707 425 90.7494 425H87.6584V417.234H90.6944C91.4717 417.234 92.0657 417.41 92.4764 417.762C92.8944 418.107 93.1034 418.583 93.1034 419.192C93.1034 419.683 92.9751 420.083 92.7184 420.391C92.4617 420.692 92.1244 420.893 91.7064 420.996ZM88.9124 420.578H90.4634C90.9034 420.578 91.2371 420.475 91.4644 420.27C91.6991 420.065 91.8164 419.779 91.8164 419.412C91.8164 419.053 91.6991 418.77 91.4644 418.565C91.2371 418.36 90.8887 418.257 90.4194 418.257H88.9124V420.578ZM90.4964 423.966C90.9731 423.966 91.3397 423.86 91.5964 423.647C91.8604 423.427 91.9924 423.123 91.9924 422.734C91.9924 422.345 91.8604 422.041 91.5964 421.821C91.3324 421.601 90.9621 421.491 90.4854 421.491H88.9124V423.966H90.4964ZM95.1732 418.939L96.9882 423.394L98.6712 418.939H100.068L96.4052 427.882H95.0082L96.3172 424.857L93.7652 418.939H95.1732ZM106.166 418.862C106.951 418.862 107.6 419.071 108.113 419.489C108.626 419.9 108.945 420.461 109.07 421.172H107.739C107.666 420.791 107.486 420.494 107.2 420.281C106.921 420.061 106.569 419.951 106.144 419.951C105.66 419.951 105.257 420.123 104.934 420.468C104.611 420.805 104.45 421.304 104.45 421.964C104.45 422.624 104.611 423.126 104.934 423.471C105.257 423.816 105.66 423.988 106.144 423.988C106.569 423.988 106.921 423.878 107.2 423.658C107.486 423.438 107.666 423.137 107.739 422.756H109.07C108.945 423.467 108.626 424.032 108.113 424.45C107.6 424.868 106.951 425.077 106.166 425.077C105.579 425.077 105.059 424.952 104.604 424.703C104.157 424.454 103.805 424.094 103.548 423.625C103.291 423.156 103.163 422.602 103.163 421.964C103.163 421.333 103.291 420.783 103.548 420.314C103.805 419.845 104.157 419.485 104.604 419.236C105.059 418.987 105.579 418.862 106.166 418.862ZM111.535 416.86V425H110.281V416.86H111.535ZM112.877 417.179C112.877 416.966 112.95 416.79 113.097 416.651C113.244 416.512 113.438 416.442 113.68 416.442C113.922 416.442 114.116 416.512 114.263 416.651C114.417 416.79 114.494 416.966 114.494 417.179C114.494 417.392 114.417 417.564 114.263 417.696C114.116 417.828 113.922 417.894 113.68 417.894C113.438 417.894 113.244 417.828 113.097 417.696C112.95 417.564 112.877 417.392 112.877 417.179ZM114.307 418.939V425H113.053V418.939H114.307ZM118.519 418.862C119.304 418.862 119.953 419.071 120.466 419.489C120.98 419.9 121.299 420.461 121.423 421.172H120.092C120.019 420.791 119.839 420.494 119.553 420.281C119.275 420.061 118.923 419.951 118.497 419.951C118.013 419.951 117.61 420.123 117.287 420.468C116.965 420.805 116.803 421.304 116.803 421.964C116.803 422.624 116.965 423.126 117.287 423.471C117.61 423.816 118.013 423.988 118.497 423.988C118.923 423.988 119.275 423.878 119.553 423.658C119.839 423.438 120.019 423.137 120.092 422.756H121.423C121.299 423.467 120.98 424.032 120.466 424.45C119.953 424.868 119.304 425.077 118.519 425.077C117.933 425.077 117.412 424.952 116.957 424.703C116.51 424.454 116.158 424.094 115.901 423.625C115.645 423.156 115.516 422.602 115.516 421.964C115.516 421.333 115.645 420.783 115.901 420.314C116.158 419.845 116.51 419.485 116.957 419.236C117.412 418.987 117.933 418.862 118.519 418.862ZM126.067 425L123.889 422.305V425H122.635V416.86H123.889V421.524L126.045 418.939H127.552L124.912 421.953L127.618 425H126.067ZM128.26 417.179C128.26 416.966 128.333 416.79 128.48 416.651C128.626 416.512 128.821 416.442 129.063 416.442C129.305 416.442 129.499 416.512 129.646 416.651C129.8 416.79 129.877 416.966 129.877 417.179C129.877 417.392 129.8 417.564 129.646 417.696C129.499 417.828 129.305 417.894 129.063 417.894C128.821 417.894 128.626 417.828 128.48 417.696C128.333 417.564 128.26 417.392 128.26 417.179ZM129.69 418.939V425H128.436V418.939H129.69ZM134.595 418.84C135.299 418.84 135.864 419.067 136.289 419.522C136.715 419.977 136.927 420.626 136.927 421.469V425H135.673V421.601C135.673 421.058 135.534 420.64 135.255 420.347C134.977 420.046 134.595 419.896 134.111 419.896C133.613 419.896 133.213 420.057 132.912 420.38C132.612 420.695 132.461 421.161 132.461 421.777V425H131.207V418.939H132.461V420.27C132.623 419.815 132.894 419.463 133.275 419.214C133.657 418.965 134.097 418.84 134.595 418.84ZM140.825 418.862C141.375 418.862 141.844 418.998 142.233 419.269C142.621 419.54 142.896 419.9 143.058 420.347V418.939H144.312V425.066C144.312 425.631 144.194 426.129 143.96 426.562C143.732 427.002 143.402 427.347 142.97 427.596C142.537 427.845 142.024 427.97 141.43 427.97C140.579 427.97 139.89 427.768 139.362 427.365C138.841 426.962 138.515 426.415 138.383 425.726H139.626C139.728 426.085 139.926 426.364 140.22 426.562C140.513 426.767 140.887 426.87 141.342 426.87C141.84 426.87 142.251 426.716 142.574 426.408C142.896 426.1 143.058 425.653 143.058 425.066V423.592C142.896 424.039 142.621 424.399 142.233 424.67C141.844 424.941 141.375 425.077 140.825 425.077C140.297 425.077 139.824 424.952 139.406 424.703C138.995 424.454 138.672 424.094 138.438 423.625C138.203 423.156 138.086 422.602 138.086 421.964C138.086 421.333 138.203 420.783 138.438 420.314C138.672 419.845 138.995 419.485 139.406 419.236C139.824 418.987 140.297 418.862 140.825 418.862ZM141.21 419.962C140.652 419.962 140.205 420.142 139.868 420.501C139.538 420.853 139.373 421.341 139.373 421.964C139.373 422.587 139.538 423.079 139.868 423.438C140.205 423.79 140.652 423.966 141.21 423.966C141.562 423.966 141.877 423.885 142.156 423.724C142.434 423.555 142.654 423.321 142.816 423.02C142.977 422.719 143.058 422.367 143.058 421.964C143.058 421.568 142.977 421.22 142.816 420.919C142.654 420.611 142.434 420.376 142.156 420.215C141.877 420.046 141.562 419.962 141.21 419.962ZM151.442 423.911V425H150.672C150.026 425 149.535 424.846 149.198 424.538C148.868 424.223 148.703 423.702 148.703 422.976V420.006H147.834V418.939H148.703V417.432H149.968V418.939H151.431V420.006H149.968V422.998C149.968 423.343 150.03 423.581 150.155 423.713C150.287 423.845 150.514 423.911 150.837 423.911H151.442ZM156.004 418.84C156.708 418.84 157.273 419.067 157.698 419.522C158.124 419.977 158.336 420.626 158.336 421.469V425H157.082V421.601C157.082 421.058 156.943 420.64 156.664 420.347C156.386 420.046 156.004 419.896 155.52 419.896C155.022 419.896 154.622 420.057 154.321 420.38C154.021 420.695 153.87 421.161 153.87 421.777V425H152.616V416.86H153.87V420.27C154.032 419.815 154.303 419.463 154.684 419.214C155.066 418.965 155.506 418.84 156.004 418.84ZM165.435 421.678C165.435 421.883 165.42 422.063 165.391 422.217H160.727C160.749 422.84 160.921 423.302 161.244 423.603C161.567 423.904 161.966 424.054 162.443 424.054C162.861 424.054 163.213 423.948 163.499 423.735C163.792 423.522 163.972 423.24 164.038 422.888H165.38C165.299 423.313 165.131 423.691 164.874 424.021C164.617 424.351 164.284 424.611 163.873 424.802C163.462 424.985 163.004 425.077 162.498 425.077C161.911 425.077 161.391 424.952 160.936 424.703C160.489 424.454 160.137 424.094 159.88 423.625C159.623 423.156 159.495 422.602 159.495 421.964C159.495 421.333 159.623 420.783 159.88 420.314C160.137 419.845 160.489 419.485 160.936 419.236C161.391 418.987 161.911 418.862 162.498 418.862C163.092 418.862 163.609 418.987 164.049 419.236C164.496 419.478 164.837 419.815 165.072 420.248C165.314 420.673 165.435 421.15 165.435 421.678ZM164.17 421.645C164.185 421.249 164.115 420.919 163.961 420.655C163.814 420.384 163.609 420.186 163.345 420.061C163.088 419.929 162.806 419.863 162.498 419.863C162.007 419.863 161.596 420.013 161.266 420.314C160.936 420.615 160.756 421.058 160.727 421.645H164.17ZM172.7 418.862C173.228 418.862 173.697 418.987 174.108 419.236C174.526 419.485 174.852 419.845 175.087 420.314C175.322 420.783 175.439 421.333 175.439 421.964C175.439 422.602 175.322 423.156 175.087 423.625C174.852 424.094 174.526 424.454 174.108 424.703C173.697 424.952 173.228 425.077 172.7 425.077C172.15 425.077 171.681 424.941 171.292 424.67C170.903 424.399 170.632 424.039 170.478 423.592V425H169.224V416.86H170.478V420.347C170.632 419.9 170.903 419.54 171.292 419.269C171.681 418.998 172.15 418.862 172.7 418.862ZM172.315 419.962C171.963 419.962 171.648 420.046 171.369 420.215C171.09 420.376 170.87 420.611 170.709 420.919C170.548 421.22 170.467 421.568 170.467 421.964C170.467 422.367 170.548 422.719 170.709 423.02C170.87 423.321 171.09 423.555 171.369 423.724C171.648 423.885 171.963 423.966 172.315 423.966C172.872 423.966 173.32 423.79 173.657 423.438C173.994 423.079 174.163 422.587 174.163 421.964C174.163 421.348 173.994 420.86 173.657 420.501C173.32 420.142 172.872 419.962 172.315 419.962ZM182.235 418.939V425H180.97V423.68C180.816 424.127 180.548 424.476 180.167 424.725C179.785 424.967 179.342 425.088 178.836 425.088C178.132 425.088 177.567 424.861 177.142 424.406C176.716 423.951 176.504 423.302 176.504 422.459V418.939H177.758V422.327C177.758 422.877 177.897 423.302 178.176 423.603C178.454 423.896 178.836 424.043 179.32 424.043C179.818 424.043 180.218 423.882 180.519 423.559C180.819 423.236 180.97 422.767 180.97 422.151V418.939H182.235ZM186.784 423.911V425H186.014C185.368 425 184.877 424.846 184.54 424.538C184.21 424.223 184.045 423.702 184.045 422.976V420.006H183.176V418.939H184.045V417.432H185.31V418.939H186.773V420.006H185.31V422.998C185.31 423.343 185.372 423.581 185.497 423.713C185.629 423.845 185.856 423.911 186.179 423.911H186.784ZM191.005 423.911V425H190.235C189.59 425 189.099 424.846 188.761 424.538C188.431 424.223 188.266 423.702 188.266 422.976V420.006H187.397V418.939H188.266V417.432H189.531V418.939H190.994V420.006H189.531V422.998C189.531 423.343 189.594 423.581 189.718 423.713C189.85 423.845 190.078 423.911 190.4 423.911H191.005ZM194.952 418.862C195.539 418.862 196.067 418.987 196.536 419.236C197.005 419.485 197.372 419.845 197.636 420.314C197.9 420.783 198.032 421.333 198.032 421.964C198.032 422.602 197.9 423.156 197.636 423.625C197.372 424.094 197.005 424.454 196.536 424.703C196.067 424.952 195.539 425.077 194.952 425.077C194.365 425.077 193.837 424.952 193.368 424.703C192.906 424.454 192.539 424.094 192.268 423.625C192.004 423.148 191.872 422.595 191.872 421.964C191.872 421.333 192.004 420.783 192.268 420.314C192.539 419.845 192.906 419.485 193.368 419.236C193.837 418.987 194.365 418.862 194.952 418.862ZM194.952 419.951C194.629 419.951 194.332 420.024 194.061 420.171C193.79 420.318 193.57 420.545 193.401 420.853C193.24 421.154 193.159 421.524 193.159 421.964C193.159 422.411 193.24 422.785 193.401 423.086C193.57 423.387 193.79 423.61 194.061 423.757C194.332 423.904 194.629 423.977 194.952 423.977C195.275 423.977 195.572 423.904 195.843 423.757C196.114 423.61 196.331 423.387 196.492 423.086C196.661 422.785 196.745 422.411 196.745 421.964C196.745 421.524 196.661 421.154 196.492 420.853C196.331 420.545 196.114 420.318 195.843 420.171C195.572 420.024 195.275 419.951 194.952 419.951ZM202.626 418.84C203.33 418.84 203.894 419.067 204.32 419.522C204.745 419.977 204.958 420.626 204.958 421.469V425H203.704V421.601C203.704 421.058 203.564 420.64 203.286 420.347C203.007 420.046 202.626 419.896 202.142 419.896C201.643 419.896 201.243 420.057 200.943 420.38C200.642 420.695 200.492 421.161 200.492 421.777V425H199.238V418.939H200.492V420.27C200.653 419.815 200.924 419.463 201.306 419.214C201.687 418.965 202.127 418.84 202.626 418.84ZM207.194 424.142C207.326 424.479 207.392 424.828 207.392 425.187C207.392 425.598 207.286 425.931 207.073 426.188C206.86 426.452 206.538 426.584 206.105 426.584V426.078C206.288 426.078 206.424 426.03 206.512 425.935C206.6 425.84 206.644 425.678 206.644 425.451V425.352H206.006V424.142H207.194ZM211.844 418.939L213.659 423.394L215.342 418.939H216.739L213.076 427.882H211.679L212.988 424.857L210.436 418.939H211.844ZM220.336 418.862C220.922 418.862 221.45 418.987 221.92 419.236C222.389 419.485 222.756 419.845 223.02 420.314C223.284 420.783 223.416 421.333 223.416 421.964C223.416 422.602 223.284 423.156 223.02 423.625C222.756 424.094 222.389 424.454 221.92 424.703C221.45 424.952 220.922 425.077 220.336 425.077C219.749 425.077 219.221 424.952 218.752 424.703C218.29 424.454 217.923 424.094 217.652 423.625C217.388 423.148 217.256 422.595 217.256 421.964C217.256 421.333 217.388 420.783 217.652 420.314C217.923 419.845 218.29 419.485 218.752 419.236C219.221 418.987 219.749 418.862 220.336 418.862ZM220.336 419.951C220.013 419.951 219.716 420.024 219.445 420.171C219.173 420.318 218.953 420.545 218.785 420.853C218.623 421.154 218.543 421.524 218.543 421.964C218.543 422.411 218.623 422.785 218.785 423.086C218.953 423.387 219.173 423.61 219.445 423.757C219.716 423.904 220.013 423.977 220.336 423.977C220.658 423.977 220.955 423.904 221.227 423.757C221.498 423.61 221.714 423.387 221.876 423.086C222.044 422.785 222.129 422.411 222.129 421.964C222.129 421.524 222.044 421.154 221.876 420.853C221.714 420.545 221.498 420.318 221.227 420.171C220.955 420.024 220.658 419.951 220.336 419.951ZM230.209 418.939V425H228.944V423.68C228.79 424.127 228.523 424.476 228.141 424.725C227.76 424.967 227.316 425.088 226.81 425.088C226.106 425.088 225.542 424.861 225.116 424.406C224.691 423.951 224.478 423.302 224.478 422.459V418.939H225.732V422.327C225.732 422.877 225.872 423.302 226.15 423.603C226.429 423.896 226.81 424.043 227.294 424.043C227.793 424.043 228.193 423.882 228.493 423.559C228.794 423.236 228.944 422.767 228.944 422.151V418.939H230.209ZM236.72 418.862C237.27 418.862 237.74 418.998 238.128 419.269C238.517 419.54 238.792 419.9 238.953 420.347V418.939H240.207V425H238.953V423.592C238.792 424.039 238.517 424.399 238.128 424.67C237.74 424.941 237.27 425.077 236.72 425.077C236.192 425.077 235.719 424.952 235.301 424.703C234.891 424.454 234.568 424.094 234.333 423.625C234.099 423.156 233.981 422.602 233.981 421.964C233.981 421.333 234.099 420.783 234.333 420.314C234.568 419.845 234.891 419.485 235.301 419.236C235.719 418.987 236.192 418.862 236.72 418.862ZM237.105 419.962C236.548 419.962 236.101 420.142 235.763 420.501C235.433 420.853 235.268 421.341 235.268 421.964C235.268 422.587 235.433 423.079 235.763 423.438C236.101 423.79 236.548 423.966 237.105 423.966C237.457 423.966 237.773 423.885 238.051 423.724C238.33 423.555 238.55 423.321 238.711 423.02C238.873 422.719 238.953 422.367 238.953 421.964C238.953 421.568 238.873 421.22 238.711 420.919C238.55 420.611 238.33 420.376 238.051 420.215C237.773 420.046 237.457 419.962 237.105 419.962ZM242.966 420.127C243.171 419.731 243.465 419.419 243.846 419.192C244.227 418.957 244.667 418.84 245.166 418.84V420.204H244.792C244.242 420.204 243.798 420.34 243.461 420.611C243.131 420.875 242.966 421.315 242.966 421.931V425H241.712V418.939H242.966V420.127ZM251.738 421.678C251.738 421.883 251.723 422.063 251.694 422.217H247.03C247.052 422.84 247.224 423.302 247.547 423.603C247.869 423.904 248.269 424.054 248.746 424.054C249.164 424.054 249.516 423.948 249.802 423.735C250.095 423.522 250.275 423.24 250.341 422.888H251.683C251.602 423.313 251.433 423.691 251.177 424.021C250.92 424.351 250.586 424.611 250.176 424.802C249.765 424.985 249.307 425.077 248.801 425.077C248.214 425.077 247.693 424.952 247.239 424.703C246.791 424.454 246.439 424.094 246.183 423.625C245.926 423.156 245.798 422.602 245.798 421.964C245.798 421.333 245.926 420.783 246.183 420.314C246.439 419.845 246.791 419.485 247.239 419.236C247.693 418.987 248.214 418.862 248.801 418.862C249.395 418.862 249.912 418.987 250.352 419.236C250.799 419.478 251.14 419.815 251.375 420.248C251.617 420.673 251.738 421.15 251.738 421.678ZM250.473 421.645C250.487 421.249 250.418 420.919 250.264 420.655C250.117 420.384 249.912 420.186 249.648 420.061C249.391 419.929 249.109 419.863 248.801 419.863C248.309 419.863 247.899 420.013 247.569 420.314C247.239 420.615 247.059 421.058 247.03 421.645H250.473ZM257.958 418.862C258.508 418.862 258.977 418.998 259.366 419.269C259.754 419.54 260.029 419.9 260.191 420.347V418.939H261.445V425H260.191V423.592C260.029 424.039 259.754 424.399 259.366 424.67C258.977 424.941 258.508 425.077 257.958 425.077C257.43 425.077 256.957 424.952 256.539 424.703C256.128 424.454 255.805 424.094 255.571 423.625C255.336 423.156 255.219 422.602 255.219 421.964C255.219 421.333 255.336 420.783 255.571 420.314C255.805 419.845 256.128 419.485 256.539 419.236C256.957 418.987 257.43 418.862 257.958 418.862ZM258.343 419.962C257.785 419.962 257.338 420.142 257.001 420.501C256.671 420.853 256.506 421.341 256.506 421.964C256.506 422.587 256.671 423.079 257.001 423.438C257.338 423.79 257.785 423.966 258.343 423.966C258.695 423.966 259.01 423.885 259.289 423.724C259.567 423.555 259.787 423.321 259.949 423.02C260.11 422.719 260.191 422.367 260.191 421.964C260.191 421.568 260.11 421.22 259.949 420.919C259.787 420.611 259.567 420.376 259.289 420.215C259.01 420.046 258.695 419.962 258.343 419.962ZM265.38 418.862C265.93 418.862 266.4 418.998 266.788 419.269C267.177 419.54 267.452 419.9 267.613 420.347V418.939H268.867V425.066C268.867 425.631 268.75 426.129 268.515 426.562C268.288 427.002 267.958 427.347 267.525 427.596C267.093 427.845 266.579 427.97 265.985 427.97C265.135 427.97 264.445 427.768 263.917 427.365C263.397 426.962 263.07 426.415 262.938 425.726H264.181C264.284 426.085 264.482 426.364 264.775 426.562C265.069 426.767 265.443 426.87 265.897 426.87C266.396 426.87 266.807 426.716 267.129 426.408C267.452 426.1 267.613 425.653 267.613 425.066V423.592C267.452 424.039 267.177 424.399 266.788 424.67C266.4 424.941 265.93 425.077 265.38 425.077C264.852 425.077 264.379 424.952 263.961 424.703C263.551 424.454 263.228 424.094 262.993 423.625C262.759 423.156 262.641 422.602 262.641 421.964C262.641 421.333 262.759 420.783 262.993 420.314C263.228 419.845 263.551 419.485 263.961 419.236C264.379 418.987 264.852 418.862 265.38 418.862ZM265.765 419.962C265.208 419.962 264.761 420.142 264.423 420.501C264.093 420.853 263.928 421.341 263.928 421.964C263.928 422.587 264.093 423.079 264.423 423.438C264.761 423.79 265.208 423.966 265.765 423.966C266.117 423.966 266.433 423.885 266.711 423.724C266.99 423.555 267.21 423.321 267.371 423.02C267.533 422.719 267.613 422.367 267.613 421.964C267.613 421.568 267.533 421.22 267.371 420.919C267.21 420.611 266.99 420.376 266.711 420.215C266.433 420.046 266.117 419.962 265.765 419.962ZM271.626 420.127C271.832 419.731 272.125 419.419 272.506 419.192C272.888 418.957 273.328 418.84 273.826 418.84V420.204H273.452C272.902 420.204 272.459 420.34 272.121 420.611C271.791 420.875 271.626 421.315 271.626 421.931V425H270.372V418.939H271.626V420.127ZM280.398 421.678C280.398 421.883 280.383 422.063 280.354 422.217H275.69C275.712 422.84 275.884 423.302 276.207 423.603C276.53 423.904 276.929 424.054 277.406 424.054C277.824 424.054 278.176 423.948 278.462 423.735C278.755 423.522 278.935 423.24 279.001 422.888H280.343C280.262 423.313 280.094 423.691 279.837 424.021C279.58 424.351 279.247 424.611 278.836 424.802C278.425 424.985 277.967 425.077 277.461 425.077C276.874 425.077 276.354 424.952 275.899 424.703C275.452 424.454 275.1 424.094 274.843 423.625C274.586 423.156 274.458 422.602 274.458 421.964C274.458 421.333 274.586 420.783 274.843 420.314C275.1 419.845 275.452 419.485 275.899 419.236C276.354 418.987 276.874 418.862 277.461 418.862C278.055 418.862 278.572 418.987 279.012 419.236C279.459 419.478 279.8 419.815 280.035 420.248C280.277 420.673 280.398 421.15 280.398 421.678ZM279.133 421.645C279.148 421.249 279.078 420.919 278.924 420.655C278.777 420.384 278.572 420.186 278.308 420.061C278.051 419.929 277.769 419.863 277.461 419.863C276.97 419.863 276.559 420.013 276.229 420.314C275.899 420.615 275.719 421.058 275.69 421.645H279.133ZM287.241 421.678C287.241 421.883 287.226 422.063 287.197 422.217H282.533C282.555 422.84 282.727 423.302 283.05 423.603C283.372 423.904 283.772 424.054 284.249 424.054C284.667 424.054 285.019 423.948 285.305 423.735C285.598 423.522 285.778 423.24 285.844 422.888H287.186C287.105 423.313 286.936 423.691 286.68 424.021C286.423 424.351 286.089 424.611 285.679 424.802C285.268 424.985 284.81 425.077 284.304 425.077C283.717 425.077 283.196 424.952 282.742 424.703C282.294 424.454 281.942 424.094 281.686 423.625C281.429 423.156 281.301 422.602 281.301 421.964C281.301 421.333 281.429 420.783 281.686 420.314C281.942 419.845 282.294 419.485 282.742 419.236C283.196 418.987 283.717 418.862 284.304 418.862C284.898 418.862 285.415 418.987 285.855 419.236C286.302 419.478 286.643 419.815 286.878 420.248C287.12 420.673 287.241 421.15 287.241 421.678ZM285.976 421.645C285.99 421.249 285.921 420.919 285.767 420.655C285.62 420.384 285.415 420.186 285.151 420.061C284.894 419.929 284.612 419.863 284.304 419.863C283.812 419.863 283.402 420.013 283.072 420.314C282.742 420.615 282.562 421.058 282.533 421.645H285.976ZM288.275 417.179C288.275 416.966 288.349 416.79 288.495 416.651C288.642 416.512 288.836 416.442 289.078 416.442C289.32 416.442 289.515 416.512 289.661 416.651C289.815 416.79 289.892 416.966 289.892 417.179C289.892 417.392 289.815 417.564 289.661 417.696C289.515 417.828 289.32 417.894 289.078 417.894C288.836 417.894 288.642 417.828 288.495 417.696C288.349 417.564 288.275 417.392 288.275 417.179ZM289.705 418.939V425H288.451V418.939H289.705ZM294.611 418.84C295.315 418.84 295.88 419.067 296.305 419.522C296.73 419.977 296.943 420.626 296.943 421.469V425H295.689V421.601C295.689 421.058 295.55 420.64 295.271 420.347C294.992 420.046 294.611 419.896 294.127 419.896C293.628 419.896 293.229 420.057 292.928 420.38C292.627 420.695 292.477 421.161 292.477 421.777V425H291.223V418.939H292.477V420.27C292.638 419.815 292.91 419.463 293.291 419.214C293.672 418.965 294.112 418.84 294.611 418.84ZM300.84 418.862C301.39 418.862 301.86 418.998 302.248 419.269C302.637 419.54 302.912 419.9 303.073 420.347V418.939H304.327V425.066C304.327 425.631 304.21 426.129 303.975 426.562C303.748 427.002 303.418 427.347 302.985 427.596C302.553 427.845 302.039 427.97 301.445 427.97C300.595 427.97 299.905 427.768 299.377 427.365C298.857 426.962 298.53 426.415 298.398 425.726H299.641C299.744 426.085 299.942 426.364 300.235 426.562C300.529 426.767 300.903 426.87 301.357 426.87C301.856 426.87 302.267 426.716 302.589 426.408C302.912 426.1 303.073 425.653 303.073 425.066V423.592C302.912 424.039 302.637 424.399 302.248 424.67C301.86 424.941 301.39 425.077 300.84 425.077C300.312 425.077 299.839 424.952 299.421 424.703C299.011 424.454 298.688 424.094 298.453 423.625C298.219 423.156 298.101 422.602 298.101 421.964C298.101 421.333 298.219 420.783 298.453 420.314C298.688 419.845 299.011 419.485 299.421 419.236C299.839 418.987 300.312 418.862 300.84 418.862ZM301.225 419.962C300.668 419.962 300.221 420.142 299.883 420.501C299.553 420.853 299.388 421.341 299.388 421.964C299.388 422.587 299.553 423.079 299.883 423.438C300.221 423.79 300.668 423.966 301.225 423.966C301.577 423.966 301.893 423.885 302.171 423.724C302.45 423.555 302.67 423.321 302.831 423.02C302.993 422.719 303.073 422.367 303.073 421.964C303.073 421.568 302.993 421.22 302.831 420.919C302.67 420.611 302.45 420.376 302.171 420.215C301.893 420.046 301.577 419.962 301.225 419.962ZM311.457 423.911V425H310.687C310.042 425 309.551 424.846 309.213 424.538C308.883 424.223 308.718 423.702 308.718 422.976V420.006H307.849V418.939H308.718V417.432H309.983V418.939H311.446V420.006H309.983V422.998C309.983 423.343 310.046 423.581 310.17 423.713C310.302 423.845 310.53 423.911 310.852 423.911H311.457ZM315.404 418.862C315.991 418.862 316.519 418.987 316.988 419.236C317.457 419.485 317.824 419.845 318.088 420.314C318.352 420.783 318.484 421.333 318.484 421.964C318.484 422.602 318.352 423.156 318.088 423.625C317.824 424.094 317.457 424.454 316.988 424.703C316.519 424.952 315.991 425.077 315.404 425.077C314.817 425.077 314.289 424.952 313.82 424.703C313.358 424.454 312.991 424.094 312.72 423.625C312.456 423.148 312.324 422.595 312.324 421.964C312.324 421.333 312.456 420.783 312.72 420.314C312.991 419.845 313.358 419.485 313.82 419.236C314.289 418.987 314.817 418.862 315.404 418.862ZM315.404 419.951C315.081 419.951 314.784 420.024 314.513 420.171C314.242 420.318 314.022 420.545 313.853 420.853C313.692 421.154 313.611 421.524 313.611 421.964C313.611 422.411 313.692 422.785 313.853 423.086C314.022 423.387 314.242 423.61 314.513 423.757C314.784 423.904 315.081 423.977 315.404 423.977C315.727 423.977 316.024 423.904 316.295 423.757C316.566 423.61 316.783 423.387 316.944 423.086C317.113 422.785 317.197 422.411 317.197 421.964C317.197 421.524 317.113 421.154 316.944 420.853C316.783 420.545 316.566 420.318 316.295 420.171C316.024 420.024 315.727 419.951 315.404 419.951ZM325.04 418.862C325.626 418.862 326.154 418.987 326.624 419.236C327.093 419.485 327.46 419.845 327.724 420.314C327.988 420.783 328.12 421.333 328.12 421.964C328.12 422.602 327.988 423.156 327.724 423.625C327.46 424.094 327.093 424.454 326.624 424.703C326.154 424.952 325.626 425.077 325.04 425.077C324.453 425.077 323.925 424.952 323.456 424.703C322.994 424.454 322.627 424.094 322.356 423.625C322.092 423.148 321.96 422.595 321.96 421.964C321.96 421.333 322.092 420.783 322.356 420.314C322.627 419.845 322.994 419.485 323.456 419.236C323.925 418.987 324.453 418.862 325.04 418.862ZM325.04 419.951C324.717 419.951 324.42 420.024 324.149 420.171C323.877 420.318 323.657 420.545 323.489 420.853C323.327 421.154 323.247 421.524 323.247 421.964C323.247 422.411 323.327 422.785 323.489 423.086C323.657 423.387 323.877 423.61 324.149 423.757C324.42 423.904 324.717 423.977 325.04 423.977C325.362 423.977 325.659 423.904 325.931 423.757C326.202 423.61 326.418 423.387 326.58 423.086C326.748 422.785 326.833 422.411 326.833 421.964C326.833 421.524 326.748 421.154 326.58 420.853C326.418 420.545 326.202 420.318 325.931 420.171C325.659 420.024 325.362 419.951 325.04 419.951ZM334.913 418.939V425H333.648V423.68C333.494 424.127 333.227 424.476 332.845 424.725C332.464 424.967 332.02 425.088 331.514 425.088C330.81 425.088 330.246 424.861 329.82 424.406C329.395 423.951 329.182 423.302 329.182 422.459V418.939H330.436V422.327C330.436 422.877 330.576 423.302 330.854 423.603C331.133 423.896 331.514 424.043 331.998 424.043C332.497 424.043 332.897 423.882 333.197 423.559C333.498 423.236 333.648 422.767 333.648 422.151V418.939H334.913ZM337.669 420.127C337.875 419.731 338.168 419.419 338.549 419.192C338.931 418.957 339.371 418.84 339.869 418.84V420.204H339.495C338.945 420.204 338.502 420.34 338.164 420.611C337.834 420.875 337.669 421.315 337.669 421.931V425H336.415V418.939H337.669V420.127Z" fill="#BAB7D4"/>
<path d="M348.865 417.223V418.719H346.753V425H344.861V418.719H342.771V417.223H348.865ZM355.488 421.766C355.488 421.92 355.469 422.089 355.433 422.272H351.176C351.198 422.734 351.315 423.068 351.528 423.273C351.74 423.471 352.012 423.57 352.342 423.57C352.62 423.57 352.851 423.5 353.035 423.361C353.218 423.222 353.339 423.042 353.398 422.822H355.389C355.308 423.255 355.132 423.643 354.861 423.988C354.589 424.325 354.245 424.593 353.827 424.791C353.409 424.982 352.943 425.077 352.43 425.077C351.828 425.077 351.293 424.952 350.824 424.703C350.362 424.446 349.999 424.08 349.735 423.603C349.471 423.126 349.339 422.569 349.339 421.931C349.339 421.286 349.467 420.728 349.724 420.259C349.988 419.782 350.354 419.419 350.824 419.17C351.293 418.913 351.828 418.785 352.43 418.785C353.038 418.785 353.574 418.91 354.036 419.159C354.498 419.408 354.853 419.76 355.103 420.215C355.359 420.662 355.488 421.179 355.488 421.766ZM353.585 421.48C353.592 421.077 353.482 420.776 353.255 420.578C353.035 420.373 352.76 420.27 352.43 420.27C352.085 420.27 351.799 420.373 351.572 420.578C351.344 420.783 351.216 421.084 351.187 421.48H353.585ZM358.349 420.017C358.584 419.643 358.885 419.346 359.251 419.126C359.625 418.906 360.029 418.796 360.461 418.796V420.809H359.922C359.424 420.809 359.035 420.915 358.756 421.128C358.485 421.341 358.349 421.7 358.349 422.206V425H356.468V418.862H358.349V420.017ZM369.202 418.796C369.957 418.796 370.551 419.031 370.984 419.5C371.416 419.962 371.633 420.607 371.633 421.436V425H369.763V421.656C369.763 421.267 369.656 420.967 369.444 420.754C369.238 420.534 368.956 420.424 368.597 420.424C368.223 420.424 367.926 420.541 367.706 420.776C367.493 421.003 367.387 421.326 367.387 421.744V425H365.506V421.656C365.506 421.267 365.403 420.967 365.198 420.754C364.992 420.534 364.71 420.424 364.351 420.424C363.977 420.424 363.68 420.538 363.46 420.765C363.24 420.992 363.13 421.319 363.13 421.744V425H361.249V418.862H363.13V419.907C363.291 419.562 363.537 419.291 363.867 419.093C364.204 418.895 364.596 418.796 365.044 418.796C365.513 418.796 365.927 418.906 366.287 419.126C366.646 419.339 366.917 419.647 367.101 420.05C367.313 419.669 367.603 419.364 367.97 419.137C368.344 418.91 368.754 418.796 369.202 418.796ZM375.115 418.785C375.893 418.785 376.512 418.979 376.974 419.368C377.444 419.757 377.737 420.27 377.854 420.908H376.094C376.043 420.659 375.926 420.464 375.742 420.325C375.566 420.178 375.343 420.105 375.071 420.105C374.859 420.105 374.697 420.153 374.587 420.248C374.477 420.336 374.422 420.464 374.422 420.633C374.422 420.824 374.521 420.967 374.719 421.062C374.925 421.157 375.244 421.253 375.676 421.348C376.146 421.458 376.531 421.572 376.831 421.689C377.132 421.799 377.392 421.982 377.612 422.239C377.832 422.496 377.942 422.84 377.942 423.273C377.942 423.625 377.847 423.937 377.656 424.208C377.466 424.479 377.191 424.692 376.831 424.846C376.472 425 376.047 425.077 375.555 425.077C374.727 425.077 374.063 424.894 373.564 424.527C373.066 424.16 372.761 423.636 372.651 422.954H374.466C374.496 423.218 374.606 423.42 374.796 423.559C374.994 423.698 375.247 423.768 375.555 423.768C375.768 423.768 375.929 423.72 376.039 423.625C376.149 423.522 376.204 423.39 376.204 423.229C376.204 423.016 376.102 422.866 375.896 422.778C375.698 422.683 375.372 422.584 374.917 422.481C374.463 422.386 374.089 422.283 373.795 422.173C373.502 422.063 373.249 421.887 373.036 421.645C372.824 421.396 372.717 421.058 372.717 420.633C372.717 420.083 372.926 419.639 373.344 419.302C373.762 418.957 374.353 418.785 375.115 418.785ZM383.518 418.785C383.987 418.785 384.391 418.891 384.728 419.104C385.065 419.317 385.315 419.606 385.476 419.973V418.862H387.346V425H385.476V423.889C385.315 424.256 385.065 424.545 384.728 424.758C384.391 424.971 383.987 425.077 383.518 425.077C383.012 425.077 382.557 424.952 382.154 424.703C381.758 424.446 381.443 424.08 381.208 423.603C380.981 423.126 380.867 422.569 380.867 421.931C380.867 421.286 380.981 420.728 381.208 420.259C381.443 419.782 381.758 419.419 382.154 419.17C382.557 418.913 383.012 418.785 383.518 418.785ZM384.123 420.435C383.72 420.435 383.393 420.567 383.144 420.831C382.902 421.095 382.781 421.462 382.781 421.931C382.781 422.4 382.902 422.767 383.144 423.031C383.393 423.295 383.72 423.427 384.123 423.427C384.519 423.427 384.842 423.291 385.091 423.02C385.348 422.749 385.476 422.386 385.476 421.931C385.476 421.469 385.348 421.106 385.091 420.842C384.842 420.571 384.519 420.435 384.123 420.435ZM392.535 418.796C393.239 418.796 393.797 419.031 394.207 419.5C394.625 419.969 394.834 420.615 394.834 421.436V425H392.953V421.656C392.953 421.245 392.843 420.926 392.623 420.699C392.411 420.464 392.125 420.347 391.765 420.347C391.384 420.347 391.08 420.468 390.852 420.71C390.632 420.952 390.522 421.297 390.522 421.744V425H388.641V418.862H390.522V419.984C390.698 419.617 390.959 419.328 391.303 419.115C391.655 418.902 392.066 418.796 392.535 418.796ZM398.407 418.785C398.876 418.785 399.279 418.891 399.617 419.104C399.954 419.317 400.2 419.606 400.354 419.973V416.86H402.235V425H400.354V423.889C400.2 424.256 399.954 424.545 399.617 424.758C399.279 424.971 398.876 425.077 398.407 425.077C397.901 425.077 397.446 424.952 397.043 424.703C396.647 424.446 396.331 424.08 396.097 423.603C395.869 423.126 395.756 422.569 395.756 421.931C395.756 421.286 395.869 420.728 396.097 420.259C396.331 419.782 396.647 419.419 397.043 419.17C397.446 418.913 397.901 418.785 398.407 418.785ZM399.012 420.435C398.608 420.435 398.282 420.567 398.033 420.831C397.791 421.095 397.67 421.462 397.67 421.931C397.67 422.4 397.791 422.767 398.033 423.031C398.282 423.295 398.608 423.427 399.012 423.427C399.408 423.427 399.73 423.291 399.98 423.02C400.236 422.749 400.365 422.386 400.365 421.931C400.365 421.469 400.236 421.106 399.98 420.842C399.73 420.571 399.408 420.435 399.012 420.435ZM411.32 422.811C411.32 423.222 411.214 423.599 411.001 423.944C410.796 424.289 410.488 424.564 410.077 424.769C409.674 424.974 409.182 425.077 408.603 425.077C407.73 425.077 407.012 424.864 406.447 424.439C405.882 424.014 405.574 423.42 405.523 422.657H407.525C407.554 422.95 407.657 423.181 407.833 423.35C408.016 423.519 408.247 423.603 408.526 423.603C408.768 423.603 408.959 423.537 409.098 423.405C409.237 423.273 409.307 423.097 409.307 422.877C409.307 422.679 409.241 422.514 409.109 422.382C408.984 422.25 408.827 422.144 408.636 422.063C408.445 421.975 408.181 421.872 407.844 421.755C407.353 421.586 406.949 421.425 406.634 421.271C406.326 421.11 406.058 420.875 405.831 420.567C405.611 420.252 405.501 419.845 405.501 419.346C405.501 418.884 405.618 418.484 405.853 418.147C406.088 417.81 406.41 417.553 406.821 417.377C407.239 417.194 407.716 417.102 408.251 417.102C409.116 417.102 409.802 417.307 410.308 417.718C410.821 418.129 411.111 418.693 411.177 419.412H409.142C409.105 419.155 409.01 418.954 408.856 418.807C408.709 418.653 408.508 418.576 408.251 418.576C408.031 418.576 407.851 418.635 407.712 418.752C407.58 418.869 407.514 419.042 407.514 419.269C407.514 419.452 407.573 419.61 407.69 419.742C407.815 419.867 407.969 419.969 408.152 420.05C408.335 420.131 408.599 420.233 408.944 420.358C409.443 420.527 409.85 420.695 410.165 420.864C410.48 421.025 410.752 421.264 410.979 421.579C411.206 421.894 411.32 422.305 411.32 422.811ZM418.19 421.766C418.19 421.92 418.172 422.089 418.135 422.272H413.878C413.9 422.734 414.017 423.068 414.23 423.273C414.443 423.471 414.714 423.57 415.044 423.57C415.323 423.57 415.554 423.5 415.737 423.361C415.92 423.222 416.041 423.042 416.1 422.822H418.091C418.01 423.255 417.834 423.643 417.563 423.988C417.292 424.325 416.947 424.593 416.529 424.791C416.111 424.982 415.645 425.077 415.132 425.077C414.531 425.077 413.995 424.952 413.526 424.703C413.064 424.446 412.701 424.08 412.437 423.603C412.173 423.126 412.041 422.569 412.041 421.931C412.041 421.286 412.169 420.728 412.426 420.259C412.69 419.782 413.057 419.419 413.526 419.17C413.995 418.913 414.531 418.785 415.132 418.785C415.741 418.785 416.276 418.91 416.738 419.159C417.2 419.408 417.556 419.76 417.805 420.215C418.062 420.662 418.19 421.179 418.19 421.766ZM416.287 421.48C416.294 421.077 416.184 420.776 415.957 420.578C415.737 420.373 415.462 420.27 415.132 420.27C414.787 420.27 414.501 420.373 414.274 420.578C414.047 420.783 413.918 421.084 413.889 421.48H416.287ZM421.051 420.017C421.286 419.643 421.587 419.346 421.953 419.126C422.327 418.906 422.731 418.796 423.163 418.796V420.809H422.624C422.126 420.809 421.737 420.915 421.458 421.128C421.187 421.341 421.051 421.7 421.051 422.206V425H419.17V418.862H421.051V420.017ZM426.789 423.163L428.12 418.862H430.122L427.944 425H425.612L423.434 418.862H425.436L426.789 423.163ZM430.725 417.135C430.725 416.849 430.828 416.614 431.033 416.431C431.238 416.24 431.51 416.145 431.847 416.145C432.184 416.145 432.456 416.24 432.661 416.431C432.866 416.614 432.969 416.849 432.969 417.135C432.969 417.414 432.866 417.648 432.661 417.839C432.456 418.022 432.184 418.114 431.847 418.114C431.51 418.114 431.238 418.022 431.033 417.839C430.828 417.648 430.725 417.414 430.725 417.135ZM432.782 418.862V425H430.901V418.862H432.782ZM436.853 418.785C437.645 418.785 438.308 419.005 438.844 419.445C439.379 419.878 439.716 420.475 439.856 421.238H437.865C437.806 420.974 437.685 420.769 437.502 420.622C437.318 420.475 437.087 420.402 436.809 420.402C436.479 420.402 436.207 420.534 435.995 420.798C435.782 421.055 435.676 421.432 435.676 421.931C435.676 422.43 435.782 422.811 435.995 423.075C436.207 423.332 436.479 423.46 436.809 423.46C437.087 423.46 437.318 423.387 437.502 423.24C437.685 423.093 437.806 422.888 437.865 422.624H439.856C439.716 423.387 439.379 423.988 438.844 424.428C438.308 424.861 437.645 425.077 436.853 425.077C436.251 425.077 435.716 424.952 435.247 424.703C434.785 424.446 434.422 424.08 434.158 423.603C433.894 423.126 433.762 422.569 433.762 421.931C433.762 421.286 433.89 420.728 434.147 420.259C434.411 419.782 434.777 419.419 435.247 419.17C435.716 418.913 436.251 418.785 436.853 418.785ZM446.667 421.766C446.667 421.92 446.649 422.089 446.612 422.272H442.355C442.377 422.734 442.495 423.068 442.707 423.273C442.92 423.471 443.191 423.57 443.521 423.57C443.8 423.57 444.031 423.5 444.214 423.361C444.398 423.222 444.519 423.042 444.577 422.822H446.568C446.488 423.255 446.312 423.643 446.04 423.988C445.769 424.325 445.424 424.593 445.006 424.791C444.588 424.982 444.123 425.077 443.609 425.077C443.008 425.077 442.473 424.952 442.003 424.703C441.541 424.446 441.178 424.08 440.914 423.603C440.65 423.126 440.518 422.569 440.518 421.931C440.518 421.286 440.647 420.728 440.903 420.259C441.167 419.782 441.534 419.419 442.003 419.17C442.473 418.913 443.008 418.785 443.609 418.785C444.218 418.785 444.753 418.91 445.215 419.159C445.677 419.408 446.033 419.76 446.282 420.215C446.539 420.662 446.667 421.179 446.667 421.766ZM444.764 421.48C444.772 421.077 444.662 420.776 444.434 420.578C444.214 420.373 443.939 420.27 443.609 420.27C443.265 420.27 442.979 420.373 442.751 420.578C442.524 420.783 442.396 421.084 442.366 421.48H444.764ZM449.881 418.785C450.658 418.785 451.278 418.979 451.74 419.368C452.209 419.757 452.503 420.27 452.62 420.908H450.86C450.809 420.659 450.691 420.464 450.508 420.325C450.332 420.178 450.108 420.105 449.837 420.105C449.624 420.105 449.463 420.153 449.353 420.248C449.243 420.336 449.188 420.464 449.188 420.633C449.188 420.824 449.287 420.967 449.485 421.062C449.69 421.157 450.009 421.253 450.442 421.348C450.911 421.458 451.296 421.572 451.597 421.689C451.898 421.799 452.158 421.982 452.378 422.239C452.598 422.496 452.708 422.84 452.708 423.273C452.708 423.625 452.613 423.937 452.422 424.208C452.231 424.479 451.956 424.692 451.597 424.846C451.238 425 450.812 425.077 450.321 425.077C449.492 425.077 448.829 424.894 448.33 424.527C447.831 424.16 447.527 423.636 447.417 422.954H449.232C449.261 423.218 449.371 423.42 449.562 423.559C449.76 423.698 450.013 423.768 450.321 423.768C450.534 423.768 450.695 423.72 450.805 423.625C450.915 423.522 450.97 423.39 450.97 423.229C450.97 423.016 450.867 422.866 450.662 422.778C450.464 422.683 450.138 422.584 449.683 422.481C449.228 422.386 448.854 422.283 448.561 422.173C448.268 422.063 448.015 421.887 447.802 421.645C447.589 421.396 447.483 421.058 447.483 420.633C447.483 420.083 447.692 419.639 448.11 419.302C448.528 418.957 449.118 418.785 449.881 418.785Z" fill="#FF7979"/>
<defs>
<filter id="filter0_d_0_5810" x="0" y="0" width="540" height="482" filterUnits="userSpaceOnUse" color-interpolation-filters="sRGB">
<feFlood flood-opacity="0" result="BackgroundImageFix"/>
<feColorMatrix in="SourceAlpha" type="matrix" values="0 0 0 0 0 0 0 0 0 0 0 0 0 0 0 0 0 0 127 0" result="hardAlpha"/>
<feOffset dy="8"/>
<feColorMatrix type="matrix" values="0 0 0 0 0 0 0 0 0 0 0 0 0 0 0 0 0 0 0.14688 0"/>
<feBlend mode="normal" in2="BackgroundImageFix" result="effect1_dropShadow_0_5810"/>
<feBlend mode="normal" in="SourceGraphic" in2="effect1_dropShadow_0_5810" result="shape"/>
</filter>
<filter id="filter1_i_0_5810" x="40" y="344" width="460" height="56" filterUnits="userSpaceOnUse" color-interpolation-filters="sRGB">
<feFlood flood-opacity="0" result="BackgroundImageFix"/>
<feBlend mode="normal" in="SourceGraphic" in2="BackgroundImageFix" result="shape"/>
<feColorMatrix in="SourceAlpha" type="matrix" values="0 0 0 0 0 0 0 0 0 0 0 0 0 0 0 0 0 0 127 0" result="hardAlpha"/>
<feOffset dy="-4"/>
<feComposite in2="hardAlpha" operator="arithmetic" k2="-1" k3="1"/>
<feColorMatrix type="matrix" values="0 0 0 0 0 0 0 0 0 0 0 0 0 0 0 0 0 0 0.0908818 0"/>
<feBlend mode="normal" in2="shape" result="effect1_innerShadow_0_5810"/>
</filter>
<clipPath id="clip0_0_5810">
<rect width="460" height="56" fill="white" transform="translate(40 40)"/>
</clipPath>
<clipPath id="clip1_0_5810">
<rect width="460" height="56" fill="white" transform="translate(40 116)"/>
</clipPath>
<clipPath id="clip2_0_5810">
<rect width="460" height="56" fill="white" transform="translate(40 192)"/>
</clipPath>
<clipPath id="clip3_0_5810">
<rect width="460" height="56" fill="white" transform="translate(40 268)"/>
</clipPath>
</defs>
</svg>
